<svg xmlns="http://www.w3.org/2000/svg" width="800" height="800" viewBox="0 0 800 800">
  <defs>
    <linearGradient id="bg" x1="0" y1="0" x2="1" y2="1">
      <stop offset="0%" stop-color="#0f172a"/>
      <stop offset="55%" stop-color="#1f2933"/>
      <stop offset="100%" stop-color="#028391"/>
    </linearGradient>
    <radialGradient id="glow" cx="50%" cy="35%" r="60%">
      <stop offset="0%" stop-color="#F6DCAC" stop-opacity=".32"/>
      <stop offset="100%" stop-color="#F6DCAC" stop-opacity="0"/>
    </radialGradient>
    <filter id="shadow" x="-20%" y="-20%" width="140%" height="140%">
      <feDropShadow dx="0" dy="18" stdDeviation="18" flood-color="#000000" flood-opacity=".35"/>
    </filter>
  </defs>

  <rect width="800" height="800" fill="url(#bg)"/>
  <rect width="800" height="800" fill="url(#glow)"/>

  <g opacity=".16">
    <path d="M0 120H800M0 240H800M0 360H800M0 480H800M0 600H800M0 720H800" stroke="#ffffff"/>
    <path d="M120 0V800M240 0V800M360 0V800M480 0V800M600 0V800M720 0V800" stroke="#ffffff"/>
  </g>

  <g filter="url(#shadow)">
    <rect x="105" y="135" width="590" height="530" rx="34" fill="#111827" opacity=".88"/>
    <rect x="135" y="170" width="530" height="70" rx="18" fill="#1f2937"/>
    <circle cx="175" cy="205" r="13" fill="#028391"/>
    <rect x="205" y="192" width="260" height="13" rx="6" fill="#e5e7eb" opacity=".85"/>
    <rect x="205" y="214" width="155" height="10" rx="5" fill="#94a3b8" opacity=".8"/>

    <rect x="135" y="280" width="250" height="300" rx="24" fill="#0f172a"/>
    <rect x="415" y="280" width="250" height="300" rx="24" fill="#0f172a"/>

    <path d="M165 520 C220 430, 260 470, 315 355 C340 305, 360 330, 370 310" fill="none" stroke="#FAA968" stroke-width="10" stroke-linecap="round"/>
    <path d="M445 500 C495 445, 525 455, 570 375 C600 320, 625 345, 645 310" fill="none" stroke="#028391" stroke-width="10" stroke-linecap="round"/>

    <g fill="#F6DCAC">
      <rect x="165" y="315" width="52" height="18" rx="9"/>
      <rect x="165" y="360" width="118" height="18" rx="9"/>
      <rect x="165" y="405" width="82" height="18" rx="9"/>
    </g>

    <g fill="#e5e7eb" opacity=".9">
      <rect x="445" y="315" width="145" height="16" rx="8"/>
      <rect x="445" y="360" width="100" height="16" rx="8"/>
      <rect x="445" y="405" width="160" height="16" rx="8"/>
    </g>

    <g stroke="#F85525" stroke-width="9" stroke-linecap="round">
      <path d="M535 505 h60"/>
      <path d="M565 475 v60"/>
    </g>
  </g>
</svg>